<?xml version="1.0" encoding="utf-8"?>
<!-- Generator: Adobe Illustrator 25.0.1, SVG Export Plug-In . SVG Version: 6.00 Build 0)  -->
<svg version="1.1" baseProfile="basic" xmlns="http://www.w3.org/2000/svg" xmlns:xlink="http://www.w3.org/1999/xlink" x="0px"
	 y="0px" viewBox="0 0 71 23" xml:space="preserve">
<style type="text/css">
	.st0{opacity:0.5;}
</style>
<g class="st0">
	<g id="Non_Editable_Art" class="st0">
		<g id="Layer_1">
		</g>
	</g>
	<g id="Isolation_Mode">
	</g>
</g>
<g>
	<path d="M11.9,9.7V2.1H9.3V1.3h6.2v0.8h-2.6v7.6H11.9z"/>
	<path d="M15.2,9.7l3.5-8.4h0.8L23,9.7h-1l-1-2.3h-4l-1,2.3H15.2z M17.5,6.5h3.2l-1.6-4L17.5,6.5z"/>
	<path d="M25.4,9.7V2.1h-2.6V1.3H29v0.8h-2.6v7.6H25.4z"/>
	<path d="M32.6,9.7V6.7l-3.1-5.5h1L33,5.8h0.1l2.5-4.5h1l-3.1,5.5v2.9H32.6z"/>
	<path d="M36.1,9.7l3.5-8.4h0.8l3.5,8.4h-1l-1-2.3h-4l-1,2.3H36.1z M38.4,6.5h3.2l-1.6-4L38.4,6.5z"/>
	<path d="M45.4,9.7V1.3h0.8L51.4,8V1.3h0.9v8.4h-0.8l-5.2-6.8v6.8H45.4z"/>
	<path d="M53.8,9.7l3.5-8.4h0.8l3.5,8.4h-1l-1-2.3h-4l-1,2.3H53.8z M56,6.5h3.2l-1.6-4L56,6.5z"/>
	<path d="M2.8,20.7v-8.4h2.6c1.2,0,2.2,0.4,3.1,1.2c0.9,0.8,1.3,1.8,1.3,3c0,1.1-0.4,2.1-1.3,3c-0.9,0.8-1.9,1.2-3.1,1.2H2.8z
		 M3.8,19.9h1.7c1,0,1.8-0.3,2.5-1s1-1.4,1-2.4s-0.3-1.7-1-2.4c-0.7-0.7-1.5-1-2.5-1H3.8V19.9z"/>
	<path d="M10.6,20.7l3.5-8.4h0.8l3.5,8.4h-1l-1-2.3h-4l-1,2.3H10.6z M12.9,17.5h3.2l-1.6-4L12.9,17.5z"/>
	<path d="M21.3,20.7L18,12.3h1l2.8,7.1l2.8-7.1h1l-3.3,8.4H21.3z"/>
	<path d="M29.2,20.7v-2.9l-3.1-5.5h1l2.5,4.5h0.1l2.5-4.5h1l-3.1,5.5v2.9H29.2z"/>
	<path d="M34.7,20.7v-8.4h2.6c1.2,0,2.2,0.4,3.1,1.2c0.9,0.8,1.3,1.8,1.3,3c0,1.1-0.4,2.1-1.3,3c-0.9,0.8-1.9,1.2-3.1,1.2H34.7z
		 M35.6,19.9h1.7c1,0,1.8-0.3,2.5-1s1-1.4,1-2.4s-0.3-1.7-1-2.4c-0.7-0.7-1.5-1-2.5-1h-1.7V19.9z"/>
	<path d="M44.4,19.6c-0.8-0.8-1.3-1.9-1.3-3.1c0-1.2,0.4-2.2,1.3-3.1c0.8-0.8,1.9-1.3,3.1-1.3s2.2,0.4,3.1,1.3
		c0.8,0.8,1.3,1.9,1.3,3.1c0,1.2-0.4,2.2-1.3,3.1c-0.8,0.8-1.9,1.3-3.1,1.3S45.3,20.4,44.4,19.6z M45.1,19c0.7,0.7,1.5,1,2.4,1
		s1.8-0.3,2.4-1c0.7-0.7,1-1.5,1-2.5c0-1-0.3-1.8-1-2.5c-0.7-0.7-1.5-1-2.4-1s-1.8,0.3-2.4,1c-0.7,0.7-1,1.5-1,2.5
		C44.1,17.5,44.4,18.3,45.1,19z"/>
	<path d="M56,20.7l-3.3-8.4h1l2.8,7.1l2.8-7.1h1l-3.3,8.4H56z"/>
	<path d="M59.7,20.7l3.5-8.4h0.8l3.5,8.4h-1l-1-2.3h-4l-1,2.3H59.7z M62,17.5h3.2l-1.6-4L62,17.5z"/>
</g>
</svg>
